<svg width="24" height="24" viewBox="0 0 24 24" fill="none" xmlns="http://www.w3.org/2000/svg">
<path d="M21 8C22.1046 8 23 8.89543 23 10V14C23 15.1046 22.1046 16 21 16H19.9381C19.446 19.9463 16.0796 23 12 23V21C15.3137 21 18 18.3137 18 15V9C18 5.68629 15.3137 3 12 3C8.68629 3 6 5.68629 6 9V16H3C1.89543 16 1 15.1046 1 14V10C1 8.89543 1.89543 8 3 8H4.06189C4.55399 4.05369 7.92038 1 12 1C16.0796 1 19.446 4.05369 19.9381 8H21Z" fill="white"/>
<path d="M8.81991 14.0879L7.75977 15.7841C8.98915 16.5541 10.4427 16.9992 12.0003 16.9992C13.5579 16.9992 15.0115 16.5541 16.2409 15.7841L15.1807 14.0879C14.2587 14.6654 13.1685 14.9992 12.0003 14.9992C10.8321 14.9992 9.74194 14.6654 8.81991 14.0879Z" fill="#A100FF"/>
</svg>
