<svg width="24" height="24" viewBox="0 0 24 24" fill="none" xmlns="http://www.w3.org/2000/svg">
<path d="M4.06361 22.6127C5.08854 16.4215 7.31105 2.99609 22 2.99609C20.5042 5.99609 19.5 7.49609 18.5 8.49609L17.5 9.49609L19 10.4961C18 13.4961 15 16.9961 11 17.4961C8.33146 17.8296 6.66421 19.663 5.99824 22.9961H4C4.02074 22.8717 4.0419 22.7438 4.06361 22.6127Z" fill="white"/>
<path d="M5.46682 8.69379L5.7134 8.12811C6.15288 7.11947 6.94451 6.31641 7.93228 5.87708L8.69188 5.53922C9.10271 5.35653 9.10271 4.75881 8.69188 4.57612L7.9748 4.25714C6.96158 3.80651 6.15577 2.97373 5.72382 1.93083L5.47063 1.31953C5.29417 0.893489 4.70578 0.893489 4.52932 1.31953L4.27612 1.93083C3.84417 2.97373 3.03838 3.80651 2.0252 4.25714L1.30805 4.57612C0.897318 4.75881 0.897318 5.35653 1.30805 5.53922L2.06767 5.87708C3.05545 6.31641 3.84706 7.11947 4.28656 8.12811L4.53312 8.69379C4.71357 9.10792 5.28637 9.10792 5.46682 8.69379Z" fill="#A100FF"/>
</svg>
