<svg width="24" height="24" viewBox="0 0 24 24" fill="none" xmlns="http://www.w3.org/2000/svg">
<g clip-path="url(#clip0_2312_846)">
<path d="M22 20V10.6586C21.3744 10.8797 20.7013 11 20 11C18.9071 11 17.8825 10.7078 17 10.1973V17H15V10H16.6822C15.0655 8.92508 14 7.08697 14 5C14 4.29873 14.1203 3.62556 14.3414 3H3C2.44772 3 2 3.44772 2 4V20C2 20.5523 2.44772 21 3 21H21C21.5523 21 22 20.5523 22 20ZM7 13H9V17H7V13ZM11 7H13V17H11V7Z" fill="white"/>
<path d="M20.4668 8.69379L20.7134 8.12811C21.1529 7.11947 21.9445 6.31641 22.9323 5.87708L23.6919 5.53922C24.1027 5.35653 24.1027 4.75881 23.6919 4.57612L22.9748 4.25714C21.9616 3.80651 21.1558 2.97373 20.7238 1.93083L20.4706 1.31953C20.2942 0.89349 19.7058 0.89349 19.5293 1.31953L19.2761 1.93083C18.8442 2.97373 18.0384 3.80651 17.0252 4.25714L16.308 4.57612C15.8973 4.75881 15.8973 5.35653 16.308 5.53922L17.0677 5.87708C18.0555 6.31641 18.8471 7.11947 19.2866 8.12811L19.5331 8.69379C19.7136 9.10792 20.2864 9.10792 20.4668 8.69379Z" fill="#A100FF"/>
</g>
<defs>
<clipPath id="clip0_2312_846">
<rect width="24" height="24" fill="white"/>
</clipPath>
</defs>
</svg>
