<svg width="24" height="24" viewBox="0 0 24 24" fill="none" xmlns="http://www.w3.org/2000/svg">
<path d="M18 14.8104L20 17.0787V19.0057H4V17.0787L6 14.8104V9.00573C6 5.52248 8.50442 2.55917 12 1.46094C15.4956 2.55917 18 5.52248 18 9.00573V14.8104ZM12 11.0057C13.1046 11.0057 14 10.1103 14 9.00573C14 7.90116 13.1046 7.00573 12 7.00573C10.8954 7.00573 10 7.90116 10 9.00573C10 10.1103 10.8954 11.0057 12 11.0057Z" fill="white"/>
<path d="M15.5017 20.0059H8.49805C9.15668 21.5853 10.4205 22.8491 11.9999 23.5077C13.5793 22.8491 14.8431 21.5853 15.5017 20.0059Z" fill="#A100FF"/>
</svg>
